<mxfile host="app.diagrams.net" agent="Mozilla/5.0 (Macintosh; Intel Mac OS X 10_15_7) AppleWebKit/605.1.15 (KHTML, like Gecko) Version/17.6 Safari/605.1.15" version="26.2.8">
  <diagram name="Page-1" id="2YBvvXClWsGukQMizWep">
    <mxGraphModel dx="589" dy="367" grid="1" gridSize="10" guides="1" tooltips="1" connect="1" arrows="1" fold="1" page="1" pageScale="1" pageWidth="850" pageHeight="1100" math="0" shadow="0">
      <root>
        <mxCell id="0" />
        <mxCell id="1" parent="0" />
        <mxCell id="JWaOpwT5AQfyVIFNH4St-29" value="" style="rounded=1;whiteSpace=wrap;html=1;strokeColor=default;align=center;verticalAlign=top;fontFamily=Helvetica;fontSize=12;fontColor=default;fillColor=default;" vertex="1" parent="1">
          <mxGeometry x="280" y="230" width="200" height="80" as="geometry" />
        </mxCell>
        <mxCell id="JWaOpwT5AQfyVIFNH4St-1" value="User" style="shape=umlActor;verticalLabelPosition=bottom;verticalAlign=top;html=1;outlineConnect=0;" vertex="1" parent="1">
          <mxGeometry x="40" y="90" width="20" height="40" as="geometry" />
        </mxCell>
        <mxCell id="JWaOpwT5AQfyVIFNH4St-9" value="GameDisplay" style="rounded=1;whiteSpace=wrap;html=1;strokeColor=default;align=center;verticalAlign=top;fontFamily=Helvetica;fontSize=12;fontColor=default;fillColor=default;" vertex="1" parent="1">
          <mxGeometry x="127.5" y="100" width="90" height="30" as="geometry" />
        </mxCell>
        <mxCell id="JWaOpwT5AQfyVIFNH4St-11" value="" style="rounded=1;whiteSpace=wrap;html=1;strokeColor=default;align=center;verticalAlign=top;fontFamily=Helvetica;fontSize=12;fontColor=default;fillColor=default;arcSize=0;" vertex="1" parent="1">
          <mxGeometry x="170" y="170" width="5" height="340" as="geometry" />
        </mxCell>
        <mxCell id="JWaOpwT5AQfyVIFNH4St-13" value="&lt;h6&gt;start()&lt;/h6&gt;" style="text;html=1;align=center;verticalAlign=middle;resizable=0;points=[];autosize=1;strokeColor=none;fillColor=none;fontFamily=Helvetica;fontSize=12;fontColor=default;" vertex="1" parent="1">
          <mxGeometry x="80" y="140" width="50" height="60" as="geometry" />
        </mxCell>
        <mxCell id="JWaOpwT5AQfyVIFNH4St-14" value="" style="html=1;verticalAlign=bottom;startArrow=oval;endArrow=block;startSize=8;edgeStyle=elbowEdgeStyle;elbow=vertical;curved=0;rounded=0;entryX=-0.2;entryY=0.03;entryDx=0;entryDy=0;entryPerimeter=0;" edge="1" parent="1" target="JWaOpwT5AQfyVIFNH4St-11">
          <mxGeometry x="0.0101" y="10" relative="1" as="geometry">
            <mxPoint x="50" y="180" as="sourcePoint" />
            <mxPoint x="622.5" y="350" as="targetPoint" />
            <mxPoint as="offset" />
          </mxGeometry>
        </mxCell>
        <mxCell id="JWaOpwT5AQfyVIFNH4St-17" value="Game" style="rounded=1;whiteSpace=wrap;html=1;strokeColor=default;align=center;verticalAlign=top;fontFamily=Helvetica;fontSize=12;fontColor=default;fillColor=default;" vertex="1" parent="1">
          <mxGeometry x="247.5" y="100" width="90" height="30" as="geometry" />
        </mxCell>
        <mxCell id="JWaOpwT5AQfyVIFNH4St-18" value="" style="rounded=1;whiteSpace=wrap;html=1;strokeColor=default;align=center;verticalAlign=top;fontFamily=Helvetica;fontSize=12;fontColor=default;fillColor=default;" vertex="1" parent="1">
          <mxGeometry x="290" y="170" width="5" height="340" as="geometry" />
        </mxCell>
        <mxCell id="JWaOpwT5AQfyVIFNH4St-21" value="" style="endArrow=classic;html=1;rounded=0;fontFamily=Helvetica;fontSize=12;fontColor=default;entryX=0;entryY=0.029;entryDx=0;entryDy=0;entryPerimeter=0;exitX=1.153;exitY=0.029;exitDx=0;exitDy=0;exitPerimeter=0;" edge="1" parent="1" source="JWaOpwT5AQfyVIFNH4St-11" target="JWaOpwT5AQfyVIFNH4St-18">
          <mxGeometry width="50" height="50" relative="1" as="geometry">
            <mxPoint x="180" y="180" as="sourcePoint" />
            <mxPoint x="190" y="110" as="targetPoint" />
          </mxGeometry>
        </mxCell>
        <mxCell id="JWaOpwT5AQfyVIFNH4St-22" value="&lt;h5&gt;new Game()&lt;/h5&gt;" style="text;html=1;align=center;verticalAlign=middle;resizable=0;points=[];autosize=1;strokeColor=none;fillColor=none;fontFamily=Helvetica;fontSize=12;fontColor=default;" vertex="1" parent="1">
          <mxGeometry x="190" y="140" width="80" height="60" as="geometry" />
        </mxCell>
        <mxCell id="JWaOpwT5AQfyVIFNH4St-23" value="" style="endArrow=classic;html=1;rounded=0;fontFamily=Helvetica;fontSize=12;fontColor=default;exitX=0.916;exitY=0.028;exitDx=0;exitDy=0;exitPerimeter=0;entryX=1.32;entryY=0.144;entryDx=0;entryDy=0;entryPerimeter=0;" edge="1" parent="1" source="JWaOpwT5AQfyVIFNH4St-18" target="JWaOpwT5AQfyVIFNH4St-18">
          <mxGeometry width="50" height="50" relative="1" as="geometry">
            <mxPoint x="360" y="280" as="sourcePoint" />
            <mxPoint x="350" y="240" as="targetPoint" />
            <Array as="points">
              <mxPoint x="380" y="180" />
              <mxPoint x="380" y="200" />
              <mxPoint x="380" y="220" />
            </Array>
          </mxGeometry>
        </mxCell>
        <mxCell id="JWaOpwT5AQfyVIFNH4St-24" value="&lt;h5&gt;runGameLoop()&lt;/h5&gt;" style="text;html=1;align=center;verticalAlign=middle;resizable=0;points=[];autosize=1;strokeColor=none;fillColor=none;fontFamily=Helvetica;fontSize=12;fontColor=default;" vertex="1" parent="1">
          <mxGeometry x="290" y="140" width="100" height="60" as="geometry" />
        </mxCell>
        <mxCell id="JWaOpwT5AQfyVIFNH4St-27" value="" style="endArrow=none;dashed=1;html=1;rounded=0;fontFamily=Helvetica;fontSize=12;fontColor=default;exitX=0.5;exitY=0;exitDx=0;exitDy=0;entryX=0.5;entryY=1;entryDx=0;entryDy=0;" edge="1" parent="1" source="JWaOpwT5AQfyVIFNH4St-11" target="JWaOpwT5AQfyVIFNH4St-9">
          <mxGeometry width="50" height="50" relative="1" as="geometry">
            <mxPoint x="260" y="260" as="sourcePoint" />
            <mxPoint x="310" y="210" as="targetPoint" />
          </mxGeometry>
        </mxCell>
        <mxCell id="JWaOpwT5AQfyVIFNH4St-28" value="" style="endArrow=none;dashed=1;html=1;rounded=0;fontFamily=Helvetica;fontSize=12;fontColor=default;exitX=0.5;exitY=0;exitDx=0;exitDy=0;entryX=0.5;entryY=1;entryDx=0;entryDy=0;" edge="1" parent="1">
          <mxGeometry width="50" height="50" relative="1" as="geometry">
            <mxPoint x="292.38" y="170" as="sourcePoint" />
            <mxPoint x="292.38" y="130" as="targetPoint" />
          </mxGeometry>
        </mxCell>
        <mxCell id="JWaOpwT5AQfyVIFNH4St-31" value="&lt;font style=&quot;font-size: 8px;&quot;&gt;loop&lt;/font&gt;" style="whiteSpace=wrap;html=1;strokeColor=default;align=center;verticalAlign=top;fontFamily=Helvetica;fontSize=12;fontColor=default;fillColor=default;" vertex="1" parent="1">
          <mxGeometry x="200" y="230" width="40" height="20" as="geometry" />
        </mxCell>
      </root>
    </mxGraphModel>
  </diagram>
</mxfile>
